<svg xmlns="http://www.w3.org/2000/svg" version="1.1" xmlns:xlink="http://www.w3.org/1999/xlink" width="200" height="200"><svg xmlns="http://www.w3.org/2000/svg" version="1.1" xmlns:xlink="http://www.w3.org/1999/xlink" viewBox="0 0 200 200"><rect width="200" height="200" fill="url('#gradient')"></rect><defs><linearGradient id="SvgjsLinearGradient1006" gradientTransform="rotate(45 0.5 0.5)"><stop offset="0%" stop-color="#000000"></stop><stop offset="100%" stop-color="#000000"></stop></linearGradient></defs><g><g fill="#ffffff" transform="matrix(6.426778242677824,0,0,6.426778242677824,3.241259444208822,142.57837724486154)" stroke="#c8512e" stroke-width="0"><path d="M5.51-16.66L5.51-14.26L4.36-14.26L4.36 1.02L5.51 1.02L5.51 3.41L1.05 3.41L1.05-16.66L5.51-16.66ZM14.57 0L11.54-5.29L10.14-3.75L10.14 0L6.71 0L6.71-14.22L10.14-14.22L10.14-7.95L11.33-9.76L14.39-14.22L18.63-14.22L13.83-7.93L18.63 0L14.57 0ZM21.39-3.19L21.39-3.19Q22.17-3.19 22.69-2.73Q23.20-2.27 23.20-1.54Q23.20-0.82 22.69-0.36Q22.17 0.11 21.39 0.11L21.39 0.11Q20.60 0.11 20.08-0.36Q19.57-0.83 19.57-1.54Q19.57-2.26 20.08-2.72Q20.60-3.19 21.39-3.19ZM24.61-14.26L24.61-16.66L29.06-16.66L29.06 3.41L24.61 3.41L24.61 1.02L25.77 1.02L25.77-14.26L24.61-14.26Z"></path></g></g></svg><style>@media (prefers-color-scheme: light) { :root { filter: none; } }
@media (prefers-color-scheme: dark) { :root { filter: none; } }
</style></svg>